# xmcd
#
# Track frame offsets:
#	150
#	17157
#	28705
#	40947
#	50917
#	59087
#	70405
#	80992
#	94262
#	107017
#	119375
#	132070
#	140557
#	150720
#	165645
#	173767
#	183125
#	196705
#	210605
#	219452
#
# Disc length: 3083 seconds
#
# Revision: 1
# Processed by: cddbd v1.4PL0 Copyright (c) Steve Scherf et al.
# Submitted via: audiograbber 1.80
#
DISCID=260c0914
DTITLE=Willie Nelson - One Step Beyond
DYEAR=1900
DGENRE=
TTITLE0=I let my mind wander
TTITLE1=December day
TTITLE2=I can´t find the time
TTITLE3=I didn´t sleep a wink
TTITLE4=You wouldn´t cross the street to say goodbye
TTITLE5=Suffer in silence
TTITLE6=There goes a man
TTITLE7=You´ll always have someone
TTITLE8=If I don´t understand
TTITLE9=Pages
TTITLE10=Any old arm´s won´t do
TTITLE11=Slow down old world
TTITLE12=Healing hands of time
TTITLE13=And so will you my love
TTITLE14=Things to remember
TTITLE15=One step beyond
TTITLE16=Undo the wrong
TTITLE17=Home is where you´re happy
TTITLE18=Why are you picking on me
TTITLE19=I hope so
EXTD=
EXTT0=
EXTT1=
EXTT2=
EXTT3=
EXTT4=
EXTT5=
EXTT6=
EXTT7=
EXTT8=
EXTT9=
EXTT10=
EXTT11=
EXTT12=
EXTT13=
EXTT14=
EXTT15=
EXTT16=
EXTT17=
EXTT18=
EXTT19=
PLAYORDER=
